<?xml version="1.0" standalone="no"?>
<!DOCTYPE svg PUBLIC "-//W3C//DTD SVG 20010904//EN"
 "http://www.w3.org/TR/2001/REC-SVG-20010904/DTD/svg10.dtd">
<svg version="1.0" xmlns="http://www.w3.org/2000/svg"
 width="800.000000pt" height="800.000000pt" viewBox="0 0 800.000000 800.000000"
 preserveAspectRatio="xMidYMid meet">
<g transform="translate(0.000000,800.000000) scale(0.100000,-0.100000)"
fill="#000000" stroke="none">
<path d="M3055 6650 c-753 -10 -1561 -22 -1795 -27 l-425 -8 -58 -27 c-117
-55 -203 -166 -226 -292 -8 -42 -11 -610 -11 -1900 l0 -1841 -44 -43 c-127
-123 -127 -314 0 -438 84 -83 103 -87 424 -91 l275 -4 6 -67 c14 -148 75 -270
193 -387 131 -130 273 -189 456 -188 116 1 199 21 303 75 93 49 197 145 249
233 44 72 84 188 94 270 3 33 10 62 14 65 5 3 719 4 1587 2 l1579 -2 16 -97
c28 -163 119 -318 240 -410 124 -93 248 -136 398 -136 178 0 322 57 449 178
119 115 185 245 199 393 l7 73 185 3 c156 2 192 6 232 22 227 93 266 392 70
534 -20 15 -54 34 -75 41 -45 16 -44 2 -3 184 54 233 85 468 95 715 8 194 1
262 -34 330 -54 106 -129 162 -274 204 -98 29 -155 61 -208 119 -46 50 -76
102 -91 162 -6 22 -22 159 -36 305 -75 766 -106 1069 -117 1105 -43 154 -196
300 -350 334 -24 5 -294 19 -599 31 -305 11 -560 23 -566 24 -5 2 -16 28 -22
57 -31 133 -138 289 -255 373 -130 93 -251 134 -412 140 -55 3 -716 -4 -1470
-14z m1616 -190 c197 -60 335 -231 364 -451 4 -31 14 -54 31 -70 28 -26 -52
-21 934 -59 332 -13 374 -19 440 -65 43 -29 96 -99 105 -138 l7 -27 -413 0
c-258 0 -428 -4 -452 -11 -49 -13 -100 -59 -126 -113 -21 -41 -21 -56 -21
-622 0 -543 2 -581 19 -619 24 -51 51 -80 101 -105 38 -19 59 -20 557 -20
l518 -1 40 -65 c78 -126 172 -195 341 -249 97 -31 118 -42 148 -75 46 -51 50
-80 43 -279 -9 -256 -40 -474 -104 -743 l-35 -148 -305 0 c-253 0 -316 3 -367
17 -83 22 -232 22 -321 0 -62 -16 -117 -17 -510 -15 l-440 3 -2 1480 c-1 814
-5 1490 -8 1502 -13 53 -111 67 -151 22 -17 -19 -19 -42 -22 -245 l-3 -224
-433 0 c-291 0 -443 -4 -465 -11 -32 -11 -61 -52 -61 -88 0 -11 12 -33 26 -50
l26 -31 451 -2 452 -3 3 -432 2 -433 -375 0 -376 0 -24 -25 c-35 -34 -34 -93
1 -126 l26 -24 374 -3 374 -3 0 -654 0 -655 -1486 0 c-1362 0 -1491 1 -1548
17 -80 22 -252 22 -321 -1 -43 -14 -114 -16 -502 -16 l-453 0 0 655 0 654 364
3 364 3 26 24 c37 35 37 101 0 130 -26 20 -38 21 -390 21 l-364 0 0 435 0 435
453 0 454 0 20 23 c31 34 36 62 18 101 -11 22 -28 38 -47 45 -20 7 -183 11
-465 11 l-433 0 2 583 3 583 28 43 c20 30 44 50 80 66 l52 24 1315 16 c723 9
1369 17 1435 18 66 2 310 4 541 5 395 2 426 1 485 -18z m1409 -1555 l0 -565
-174 0 c-149 0 -175 2 -180 16 -3 9 -6 257 -6 553 0 404 3 540 12 549 8 8 63
12 180 12 l168 0 0 -565z m500 555 c0 -17 100 -1044 105 -1082 l5 -38 -215 0
-215 0 0 565 0 565 160 0 c98 0 160 -4 160 -10z m-4588 -3030 c163 -50 289
-197 318 -373 38 -222 -105 -452 -322 -518 -99 -30 -239 -24 -323 15 -276 126
-370 447 -204 696 114 171 326 242 531 180z m4463 8 c126 -32 238 -126 300
-251 33 -68 39 -90 43 -164 3 -49 -1 -110 -8 -142 -29 -135 -124 -252 -256
-318 -71 -35 -85 -38 -178 -41 -83 -3 -112 0 -164 17 -225 76 -358 291 -322
519 43 275 311 449 585 380z m-5124 -57 c-34 -43 -81 -128 -99 -178 l-11 -33
-279 0 c-268 0 -280 1 -306 21 -57 45 -70 116 -31 176 33 50 54 52 418 53
l339 0 -31 -39z m4509 33 c0 -3 -15 -25 -34 -49 -18 -24 -48 -78 -67 -120
l-34 -75 -1616 0 -1616 0 -21 55 c-12 30 -38 81 -59 112 -21 32 -42 64 -46 71
-6 9 345 12 1743 12 962 0 1750 -3 1750 -6z m1505 -8 c65 -28 93 -114 56 -173
-37 -58 -48 -61 -253 -65 l-187 -3 -20 55 c-11 30 -41 86 -66 124 -25 38 -45
71 -45 72 0 2 108 4 240 4 185 0 248 -3 275 -14z"/>
<path d="M1792 5367 c-22 -23 -22 -28 -22 -379 l0 -357 27 -21 c32 -25 69 -20
96 12 15 17 17 42 17 178 l0 158 96 4 c86 3 98 5 115 27 26 32 24 67 -6 96
-22 23 -32 25 -115 25 l-91 0 3 68 3 67 102 5 c87 4 104 8 117 25 22 29 19 68
-7 93 -22 21 -33 22 -168 22 -139 0 -146 -1 -167 -23z"/>
<path d="M2380 5377 c-59 -19 -113 -83 -140 -167 -22 -65 -25 -93 -25 -215 0
-117 4 -152 23 -212 40 -129 114 -187 237 -187 83 0 137 24 184 81 63 76 92
242 72 413 -17 156 -60 236 -145 276 -56 26 -143 31 -206 11z m129 -138 c53
-19 73 -73 79 -209 6 -143 -9 -222 -48 -262 -50 -49 -121 -33 -157 35 -25 47
-31 274 -9 349 19 67 38 85 97 97 3 0 20 -4 38 -10z"/>
<path d="M3000 5377 c-19 -6 -54 -30 -77 -53 -57 -57 -83 -141 -90 -294 -12
-251 58 -400 201 -430 32 -6 75 -9 99 -5 153 26 221 148 220 400 0 214 -47
324 -158 376 -45 21 -139 24 -195 6z m134 -141 c46 -19 67 -75 73 -202 8 -135
-10 -228 -49 -268 -26 -25 -34 -28 -75 -23 -83 9 -107 75 -101 277 4 138 21
194 68 217 32 16 43 16 84 -1z"/>
<path d="M3533 5379 c-63 -18 -63 -18 -63 -397 l0 -343 26 -26 c24 -24 30 -25
87 -18 231 26 367 183 367 424 -1 194 -63 311 -189 356 -48 17 -176 19 -228 4z
m197 -158 c14 -9 36 -39 50 -67 21 -41 25 -63 25 -139 0 -78 -4 -98 -28 -146
-27 -56 -71 -96 -129 -118 l-28 -11 0 249 c0 136 3 251 7 255 11 11 75 -3 103
-23z"/>
<path d="M1512 4323 c-7 -3 -19 -18 -28 -34 -30 -59 20 -109 109 -109 l47 0 0
-304 0 -305 27 -21 c32 -25 69 -20 96 12 15 18 17 49 17 318 l0 298 60 4 c39
3 66 11 80 23 28 25 26 76 -3 103 -22 21 -32 22 -208 21 -101 0 -190 -3 -197
-6z"/>
<path d="M2105 4325 c-5 -2 -22 -6 -37 -9 -59 -13 -58 -5 -58 -391 l0 -354 27
-21 c32 -25 69 -20 96 12 14 17 17 40 17 133 l0 113 41 7 c22 4 42 5 45 2 2
-2 28 -60 58 -128 57 -133 85 -166 129 -155 35 8 57 33 57 63 0 14 -25 84 -56
155 l-56 128 25 20 c69 54 93 200 48 293 -44 91 -133 138 -260 136 -36 0 -70
-2 -76 -4z m177 -167 c44 -31 49 -116 8 -153 -22 -20 -85 -44 -117 -45 -22 0
-23 2 -23 109 0 106 1 110 23 114 35 6 79 -4 109 -25z"/>
<path d="M2594 4305 l-25 -25 3 -288 c3 -257 5 -291 22 -322 26 -49 64 -88
111 -113 56 -30 164 -30 221 0 54 29 110 92 123 140 7 22 11 151 11 315 l0
277 -26 20 c-35 27 -65 27 -92 -2 -21 -23 -22 -30 -22 -281 0 -208 -3 -262
-15 -286 -34 -66 -106 -80 -156 -31 -16 16 -29 38 -30 48 0 10 0 125 0 255 0
143 -4 250 -10 268 -19 54 -74 66 -115 25z"/>
<path d="M3333 4314 c-54 -20 -105 -76 -134 -150 -21 -54 -23 -75 -24 -229 0
-139 3 -179 18 -222 25 -71 69 -128 119 -155 60 -31 175 -31 235 0 113 59 143
222 41 222 -28 0 -34 -5 -98 -77 -14 -16 -30 -23 -57 -23 -88 0 -118 65 -118
250 1 138 13 195 48 228 42 40 117 30 142 -18 41 -79 135 -59 135 28 0 85
-101 163 -209 161 -31 0 -75 -7 -98 -15z"/>
<path d="M3766 4309 l-26 -20 0 -359 0 -359 26 -20 c35 -27 59 -26 89 4 24 24
25 28 25 185 l0 160 38 0 38 0 69 -166 c70 -166 95 -204 137 -204 25 0 68 44
68 68 0 11 -34 100 -75 198 l-76 179 56 132 c30 73 55 144 55 158 0 57 -73 85
-116 44 -12 -11 -43 -74 -70 -140 l-48 -119 -38 0 -38 0 0 119 c0 117 -1 120
-26 140 -15 12 -34 21 -44 21 -10 0 -29 -9 -44 -21z"/>
<path d="M5628 3679 c-32 -12 -61 -69 -52 -103 3 -13 17 -35 31 -48 l25 -23
591 -5 c534 -5 595 -7 623 -22 62 -34 104 -106 104 -181 0 -42 40 -77 88 -77
82 0 111 70 77 186 -42 146 -151 246 -300 273 -75 14 -1148 14 -1187 0z"/>
<path d="M1787 2320 c-104 -18 -195 -88 -245 -189 -37 -77 -43 -183 -12 -263
27 -72 97 -151 164 -185 67 -34 190 -43 262 -19 114 38 203 142 225 266 14 82
-1 122 -54 139 -63 21 -110 -14 -121 -89 -19 -130 -139 -191 -244 -123 -71 46
-91 126 -53 202 24 47 57 69 119 81 69 13 81 19 97 51 18 34 19 50 4 82 -19
42 -69 59 -142 47z"/>
<path d="M6271 2319 c-273 -54 -370 -387 -169 -580 65 -62 136 -89 236 -89
100 0 177 34 244 109 130 144 110 356 -29 310 -38 -12 -58 -44 -66 -106 -10
-79 -72 -133 -154 -133 -88 0 -153 65 -153 154 0 89 48 143 143 157 65 10 97
43 97 98 0 67 -59 98 -149 80z"/>
</g>
</svg>
